PathFileType	4	(X/Y/Z)	/Users/visionmauri/4_1_1_f_Sports2D/4_1_1_f_Sports2D_px_person00.trc
DataRate	CameraRate	NumFrames	NumMarkers	Units	OrigDataRate	OrigDataStartFrame	OrigNumFrames
30.0	30.0	8	22	m	30.0	88	355
Frame#	Time	Hip			RHip			RKnee			RAnkle			RBigToe			RSmallToe			RHeel			LHip			LKnee			LAnkle			LBigToe			LSmallToe			LHeel			Neck			Head			Nose			RShoulder			RElbow			RWrist			LShoulder			LElbow			LWrist			
		X1	Y1	Z1	X2	Y2	Z2	X3	Y3	Z3	X4	Y4	Z4	X5	Y5	Z5	X6	Y6	Z6	X7	Y7	Z7	X8	Y8	Z8	X9	Y9	Z9	X10	Y10	Z10	X11	Y11	Z11	X12	Y12	Z12	X13	Y13	Z13	X14	Y14	Z14	X15	Y15	Z15	X16	Y16	Z16	X17	Y17	Z17	X18	Y18	Z18	X19	Y19	Z19	X20	Y20	Z20	X21	Y21	Z21	X22	Y22	Z22
88	2.9416195856873824	543.4200981561834	841.5904982090519	0.0	598.2902819794944	843.6822292790503	0.0	626.2492691487328	1035.1330897975404	0.0	620.0779964603659	1047.5450543707855	0.0	614.5882248851889	1031.8135078603116	0.0	639.1600100234137	1050.5301389542688	0.0	611.4443918525672	1043.02485168334	0.0	488.4932186931602	848.2102081729824	0.0	487.4120566213396	1060.5726839377232	0.0	495.1889939393778	1270.1926295802305	0.0	503.92571765005937	1316.7633637768247	0.0	473.5579833131724	1321.5191397540225	0.0	499.7085914152445	1308.3022376513777	0.0	580.1505161075303	566.0319919285525	0.0	613.2707534504727	458.57065712369877	0.0	606.2215091855182	518.1487051197805	0.0	668.4910682111847	603.3999644440859	0.0	729.5492441643478	746.6820709849158	0.0	752.7168890911477	838.3701164672282	0.0	482.13922040791664	589.3782940078987	0.0	412.340985863685	723.0823485248671	0.0	386.23547070041286	843.3819736295131	0.0
89	2.9750470809792846	542.8825988778369	843.286203731282	0.0	597.2913252658904	846.0677052092898	0.0	626.7023156113868	1035.6715861327484	0.0	618.7486850527421	1045.9510231964466	0.0	612.6141761133903	1034.4613976219068	0.0	637.5566622498103	1049.6769564482952	0.0	609.4677219169901	1042.3771811835918	0.0	488.46460225903957	850.0289103606259	0.0	489.3542713486248	1062.657867130085	0.0	492.62215587726973	1267.0242231836394	0.0	508.43670250477544	1313.7876257158082	0.0	476.14271063587194	1318.331729070959	0.0	495.1554458963253	1306.2473863149937	0.0	578.8652201335775	566.6270566614548	0.0	611.4076691244067	460.4292307949692	0.0	603.6763837502962	518.3373106964048	0.0	668.2299982526949	603.7915584244267	0.0	727.4479558243765	746.984650737968	0.0	752.6781003929572	837.8557147934913	0.0	480.21223312581566	591.3498062974028	0.0	408.6616178012961	723.34667073074	0.0	385.8313796792696	842.8743069962698	0.0
90	3.0084745762711864	542.995718419294	846.6449406776048	0.0	596.848424590946	849.1576430780466	0.0	626.6305525734057	1036.4311489748036	0.0	617.9326838039302	1042.7230513636985	0.0	612.4908241529953	1035.4787431993204	0.0	636.5401818472151	1048.4032068901063	0.0	607.7737810091718	1043.7319586076198	0.0	487.76484452790544	852.5318209680416	0.0	491.51671303966594	1065.5236792815351	0.0	491.21053831609805	1262.3889115795876	0.0	510.76033858115056	1309.6054129487413	0.0	477.14232381630086	1313.0869268865533	0.0	492.2221388871833	1302.6066424960359	0.0	576.8503012094695	567.2014932399392	0.0	609.8303043467988	462.343589685745	0.0	601.7330534144311	518.7673500220177	0.0	665.9836381487024	604.7297139496259	0.0	723.8555498585262	746.4067295014669	0.0	752.1082084246971	837.803716358246	0.0	476.50796272863727	592.884302016334	0.0	404.9714081858837	722.6951304331067	0.0	385.390373538586	842.2925745072484	0.0
91	3.0419020715630887	543.130280988726	849.1987467339239	0.0	596.8742253129889	850.2914304769827	0.0	626.1823020605782	1036.3474031247351	0.0	618.1835473578257	1041.819970534309	0.0	613.1653482642877	1038.6691546509928	0.0	635.3844873072286	1046.8627683139916	0.0	607.2700676890138	1044.8601355444496	0.0	486.9624684710312	853.9552960673578	0.0	494.15370567074854	1066.1889832674974	0.0	491.98049949946324	1258.6998554798574	0.0	511.561128537706	1305.450197341699	0.0	477.4522690854283	1308.2131230192776	0.0	492.6704181584014	1299.2777288190548	0.0	573.7373042486861	569.1377972189996	0.0	608.860938854774	464.29996630558986	0.0	601.2809836933466	521.0499605218263	0.0	661.5510940499694	606.4498140844948	0.0	719.0879058631427	745.9596224699671	0.0	750.505610287232	838.2943016205735	0.0	472.0500958106414	594.4913022404754	0.0	401.53359553278597	721.5399164514406	0.0	384.4452199405272	841.978798694058	0.0
92	3.075329566854991	542.4510274051962	849.7885007096397	0.0	596.5377991503575	849.3810150114299	0.0	625.9007612545224	1035.9109193786833	0.0	618.5624416210211	1042.1765232723687	0.0	614.0580405545207	1042.4567845739914	0.0	634.3279176457394	1045.6650076630447	0.0	606.8571191908279	1043.427955061295	0.0	486.5445940053231	854.1969018704241	0.0	496.4364817564317	1065.1425591356028	0.0	494.32043800015936	1257.194853337034	0.0	512.5049715547381	1301.8353485048647	0.0	478.66326945140827	1304.8815299054954	0.0	495.21587965826257	1297.0082619400127	0.0	570.1543338609342	571.0915800831789	0.0	607.0000687081696	466.2010919496149	0.0	600.9680821089013	524.0450770247459	0.0	656.3872203443453	607.8814706027773	0.0	713.8517336245933	746.2809348337232	0.0	748.7803749075046	839.3720177830836	0.0	467.7165102908291	596.0086604139123	0.0	397.72428875678463	720.728526876885	0.0	383.4636875341345	841.5462065538582	0.0
93	3.1087570621468927	541.0088665487382	848.7792213643737	0.0	595.4812702868534	847.9793617609481	0.0	626.1935299683953	1035.6984453752575	0.0	618.28743515905	1040.2652397057402	0.0	614.6964054586496	1043.318256771089	0.0	633.9623271095144	1045.299984123012	0.0	606.0107508892581	1038.0937362722188	0.0	486.1331007179905	854.3217845363995	0.0	497.64815353643223	1064.5008519619578	0.0	496.6595291568868	1256.9116285415785	0.0	513.3177120711948	1298.2155665775601	0.0	480.37507102639995	1302.2451209988994	0.0	497.3356132546507	1295.027049680446	0.0	566.6211183201356	571.8497654873713	0.0	603.6943805106908	467.869049853833	0.0	598.991368957863	525.9086048048699	0.0	651.0047592520523	608.1084615568182	0.0	708.9915498494889	746.6695427148527	0.0	748.0571999938206	840.7512637016199	0.0	463.8988062347023	597.1017692397253	0.0	392.6289682473111	720.1946220587909	0.0	382.66779150983103	840.4492333211928	0.0
94	3.142184557438795	539.5241289938408	847.2405782959094	0.0	593.9413158274976	846.9669190253375	0.0	626.3101248308483	1033.7949089953217	0.0	617.7243836964435	1036.667130648694	0.0	614.8873753792604	1041.039659306428	0.0	634.5595139591895	1045.6317294345592	0.0	605.6557165613607	1031.2967042379187	0.0	484.9873891897023	854.4647990584472	0.0	498.0604433826215	1064.518564732071	0.0	497.9567209186909	1256.6691001929332	0.0	512.7246012197926	1295.0977913379163	0.0	481.0024169330453	1300.23903691637	0.0	498.35877824557593	1293.1673572357706	0.0	562.1934136702257	572.403332981486	0.0	600.3469209396984	469.4357651365089	0.0	596.2171023984324	527.4908893975061	0.0	644.8694905783032	607.9278578721023	0.0	704.2165342597252	746.0196262901818	0.0	748.0536857593582	841.8701372036923	0.0	459.9566005250775	597.9008078185486	0.0	385.45065368922576	718.8383264257301	0.0	381.1143543037215	839.4207909810901	0.0
95	3.175612052730697	538.189720499258	846.2169184827336	0.0	592.2056048498362	846.4839666781832	0.0	625.1732556705736	1028.737941668022	0.0	617.4291162546922	1034.0413392996225	0.0	614.992682523359	1039.1656103627572	0.0	636.5137923369796	1047.560818668323	0.0	606.1179683118335	1026.416243414542	0.0	483.260931171948	854.5422342369909	0.0	498.23118394065	1064.34684488393	0.0	498.2909354087024	1256.3341210790027	0.0	511.4828083250099	1293.8752693645959	0.0	480.84126395838155	1299.5006336275078	0.0	498.9518431401878	1292.0679792378853	0.0	556.2371844192344	573.296413949629	0.0	597.54306221656	470.75631373526744	0.0	594.4180183283614	529.4720872574179	0.0	638.0130346725695	608.3589064469655	0.0	698.9523300790902	744.4920143529977	0.0	747.5861808727094	842.4574613334477	0.0	454.78245607380114	598.5745866115947	0.0	376.91660216262903	716.0405916280828	0.0	378.176830966877	838.7885803546612	0.0
